# xmcd CD database file
#
# Track frame offsets:
#	180
#	10610
#	27744
#	40293
#	48797
#	70436
#	84452
#	93059
#	101203
#	115371
#	137945
#	151417
#	166767
#	180970
#	211392
#	227137
#	239554
#	254996
#	266741
#	282916
#
# Disc length: 4226 seconds
#
# Revision: 2
# Processed by: cddbd v1.5.1PL2 Copyright (c) Steve Scherf et al.
# Submitted via: CDex 1.51
#
DISCID=1e108014
DTITLE=Nirvana - B-side themselves
DYEAR=1995
DGENRE=Alternative
TTITLE0=turnaround
TTITLE1=D-7
TTITLE2=Son of a gun
TTITLE3=Molly's lips
TTITLE4=Aneurysm
TTITLE5=Even in his youth
TTITLE6=Been a son
TTITLE7=Polly
TTITLE8=Something in the way
TTITLE9=here she comes now
TTITLE10=Curmudgeon
TTITLE11=Oh, the guilt
TTITLE12=Return of the rat
TTITLE13=Endless, nameless
TTITLE14=stay away
TTITLE15=I hate myself and I want to die
TTITLE16=Sappy
TTITLE17=Marigold
TTITLE18=Moist Vagina
TTITLE19=Gallon of Rubbing alcohol flow through the strip
EXTD=YEAR: 1995
EXTT0=
EXTT1=
EXTT2=
EXTT3=
EXTT4=
EXTT5=
EXTT6=
EXTT7=
EXTT8=
EXTT9=
EXTT10=
EXTT11=
EXTT12=
EXTT13=
EXTT14=
EXTT15=
EXTT16=
EXTT17=
EXTT18=
EXTT19=
PLAYORDER=
